<svg width="366" height="248" viewBox="0 0 366 248" fill="none" xmlns="http://www.w3.org/2000/svg">
<g filter="url(#filter0_d_1_48)">
<rect width="328" height="210" transform="translate(19 6)" fill="white"/>
<g clip-path="url(#clip0_1_48)">
<g clip-path="url(#clip1_1_48)">
<path opacity="0.15" d="M102.65 54.7502H63.35C63.332 54.7502 63.32 54.7621 63.32 54.7799V60.1851C63.32 63.7294 66.26 66.6039 69.878 66.6039C72.32 66.6039 74.45 65.3 75.584 63.3619C75.758 63.0597 76.088 62.87 76.442 62.87C76.796 62.87 77.12 63.0597 77.3 63.3619C78.428 65.3 80.558 66.6039 83 66.6039C85.448 66.6039 87.584 65.2941 88.706 63.3501C88.88 63.0537 89.198 62.87 89.54 62.87H89.576C89.924 62.87 90.236 63.0537 90.41 63.3501C91.538 65.2941 93.674 66.6039 96.122 66.6039C99.74 66.6039 102.68 63.7294 102.68 60.1851V54.7799C102.68 54.7621 102.668 54.7502 102.65 54.7502Z" fill="#00A0C1"/>
<path d="M105.2 50.4889V42.8966C105.2 41.8475 104.342 41 103.28 41H62.72C61.658 41 60.8 41.8475 60.8 42.8966V50.4889C59.798 50.5481 59 51.372 59 52.3795V60.1851C58.9962 61.6197 59.2903 63.0398 59.864 64.3576C60.122 64.9622 60.44 65.5311 60.8 66.0705V86.518C60.8 87.5612 61.658 88.4146 62.72 88.4146H103.28C104.342 88.4146 105.2 87.5671 105.2 86.518V66.0705C105.566 65.5298 105.879 64.9563 106.136 64.3576C106.706 63.036 107 61.6313 107 60.1851V52.3795C107 51.372 106.202 50.5481 105.2 50.4889ZM65.12 45.2673H100.88V50.4829H65.12V45.2673ZM86.84 84.1532H79.16V77.9834H86.84V84.1532ZM100.904 84.1532H90.68V76.0868C90.68 75.0378 89.822 74.1902 88.76 74.1902H77.24C76.178 74.1902 75.32 75.0378 75.32 76.0868V84.1532H65.12V69.7985C65.294 69.8814 65.474 69.9644 65.66 70.0355C66.998 70.5927 68.42 70.8712 69.884 70.8712C71.348 70.8712 72.764 70.5927 74.108 70.0355C74.936 69.6918 75.716 69.2532 76.43 68.7257C76.442 68.7198 76.454 68.7198 76.466 68.7257C77.1822 69.2554 77.9622 69.6954 78.788 70.0355C80.126 70.5927 81.548 70.8712 83.012 70.8712C84.476 70.8712 85.892 70.5927 87.236 70.0355C88.064 69.6918 88.844 69.2532 89.558 68.7257C89.57 68.7198 89.582 68.7198 89.594 68.7257C90.3102 69.2554 91.0902 69.6954 91.916 70.0355C93.254 70.5927 94.676 70.8712 96.14 70.8712C97.604 70.8712 99.02 70.5927 100.364 70.0355C100.544 69.9585 100.724 69.8814 100.904 69.7985V84.1532V84.1532ZM102.68 60.1851C102.68 63.7294 99.74 66.6039 96.122 66.6039C93.674 66.6039 91.538 65.2941 90.41 63.3501C90.236 63.0537 89.924 62.87 89.576 62.87H89.54C89.198 62.87 88.88 63.0537 88.706 63.3501C88.1304 64.3417 87.2992 65.1652 86.297 65.7367C85.2948 66.3082 84.1572 66.6074 83 66.6039C80.558 66.6039 78.428 65.3 77.3 63.3619C77.12 63.0597 76.796 62.87 76.442 62.87C76.088 62.87 75.758 63.0597 75.584 63.3619C75.005 64.3498 74.1728 65.1695 73.1711 65.7387C72.1694 66.3078 71.0336 66.6062 69.878 66.6039C66.26 66.6039 63.32 63.7294 63.32 60.1851V54.7799C63.32 54.7621 63.332 54.7502 63.35 54.7502H102.65C102.668 54.7502 102.68 54.7621 102.68 54.7799V60.1851Z" fill="#00A0C1"/>
</g>
</g>
<path d="M60.992 124V107.2H64.208L74.12 119.296H72.56V107.2H76.4V124H73.208L63.272 111.904H64.832V124H60.992ZM88.1308 124V121.48L87.8908 120.928V116.416C87.8908 115.616 87.6428 114.992 87.1468 114.544C86.6668 114.096 85.9228 113.872 84.9148 113.872C84.2268 113.872 83.5468 113.984 82.8748 114.208C82.2188 114.416 81.6588 114.704 81.1948 115.072L79.8508 112.456C80.5548 111.96 81.4028 111.576 82.3948 111.304C83.3868 111.032 84.3948 110.896 85.4188 110.896C87.3868 110.896 88.9148 111.36 90.0028 112.288C91.0908 113.216 91.6348 114.664 91.6348 116.632V124H88.1308ZM84.1948 124.192C83.1868 124.192 82.3228 124.024 81.6028 123.688C80.8828 123.336 80.3308 122.864 79.9468 122.272C79.5628 121.68 79.3708 121.016 79.3708 120.28C79.3708 119.512 79.5548 118.84 79.9228 118.264C80.3068 117.688 80.9068 117.24 81.7228 116.92C82.5388 116.584 83.6028 116.416 84.9148 116.416H88.3468V118.6H85.3228C84.4428 118.6 83.8348 118.744 83.4988 119.032C83.1788 119.32 83.0188 119.68 83.0188 120.112C83.0188 120.592 83.2028 120.976 83.5708 121.264C83.9548 121.536 84.4748 121.672 85.1308 121.672C85.7548 121.672 86.3148 121.528 86.8108 121.24C87.3068 120.936 87.6668 120.496 87.8908 119.92L88.4668 121.648C88.1948 122.48 87.6988 123.112 86.9788 123.544C86.2588 123.976 85.3308 124.192 84.1948 124.192ZM100.403 124.192C98.8833 124.192 97.6993 123.808 96.8513 123.04C96.0033 122.256 95.5793 121.096 95.5793 119.56V108.232H99.3233V119.512C99.3233 120.056 99.4673 120.48 99.7553 120.784C100.043 121.072 100.435 121.216 100.931 121.216C101.523 121.216 102.027 121.056 102.443 120.736L103.451 123.376C103.067 123.648 102.603 123.856 102.059 124C101.531 124.128 100.979 124.192 100.403 124.192ZM93.5873 114.256V111.376H102.539V114.256H93.5873ZM105.653 124V111.088H109.397V124H105.653ZM107.525 109.288C106.837 109.288 106.277 109.088 105.845 108.688C105.413 108.288 105.197 107.792 105.197 107.2C105.197 106.608 105.413 106.112 105.845 105.712C106.277 105.312 106.837 105.112 107.525 105.112C108.213 105.112 108.773 105.304 109.205 105.688C109.637 106.056 109.853 106.536 109.853 107.128C109.853 107.752 109.637 108.272 109.205 108.688C108.789 109.088 108.229 109.288 107.525 109.288ZM119.116 124.192C117.74 124.192 116.516 123.904 115.444 123.328C114.388 122.752 113.548 121.968 112.924 120.976C112.316 119.968 112.012 118.824 112.012 117.544C112.012 116.248 112.316 115.104 112.924 114.112C113.548 113.104 114.388 112.32 115.444 111.76C116.516 111.184 117.74 110.896 119.116 110.896C120.476 110.896 121.692 111.184 122.764 111.76C123.836 112.32 124.676 113.096 125.284 114.088C125.892 115.08 126.196 116.232 126.196 117.544C126.196 118.824 125.892 119.968 125.284 120.976C124.676 121.968 123.836 122.752 122.764 123.328C121.692 123.904 120.476 124.192 119.116 124.192ZM119.116 121.12C119.74 121.12 120.3 120.976 120.796 120.688C121.292 120.4 121.684 119.992 121.972 119.464C122.26 118.92 122.404 118.28 122.404 117.544C122.404 116.792 122.26 116.152 121.972 115.624C121.684 115.096 121.292 114.688 120.796 114.4C120.3 114.112 119.74 113.968 119.116 113.968C118.492 113.968 117.932 114.112 117.436 114.4C116.94 114.688 116.54 115.096 116.236 115.624C115.948 116.152 115.804 116.792 115.804 117.544C115.804 118.28 115.948 118.92 116.236 119.464C116.54 119.992 116.94 120.4 117.436 120.688C117.932 120.976 118.492 121.12 119.116 121.12ZM136.646 110.896C137.67 110.896 138.582 111.104 139.382 111.52C140.198 111.92 140.838 112.544 141.302 113.392C141.766 114.224 141.998 115.296 141.998 116.608V124H138.254V117.184C138.254 116.144 138.022 115.376 137.558 114.88C137.11 114.384 136.47 114.136 135.638 114.136C135.046 114.136 134.51 114.264 134.03 114.52C133.566 114.76 133.198 115.136 132.926 115.648C132.67 116.16 132.542 116.816 132.542 117.616V124H128.798V111.088H132.374V114.664L131.702 113.584C132.166 112.72 132.83 112.056 133.694 111.592C134.558 111.128 135.542 110.896 136.646 110.896ZM153.412 124V121.48L153.172 120.928V116.416C153.172 115.616 152.924 114.992 152.428 114.544C151.948 114.096 151.204 113.872 150.196 113.872C149.508 113.872 148.828 113.984 148.156 114.208C147.5 114.416 146.94 114.704 146.476 115.072L145.132 112.456C145.836 111.96 146.684 111.576 147.676 111.304C148.668 111.032 149.676 110.896 150.7 110.896C152.668 110.896 154.196 111.36 155.284 112.288C156.372 113.216 156.916 114.664 156.916 116.632V124H153.412ZM149.476 124.192C148.468 124.192 147.604 124.024 146.884 123.688C146.164 123.336 145.612 122.864 145.228 122.272C144.844 121.68 144.652 121.016 144.652 120.28C144.652 119.512 144.836 118.84 145.204 118.264C145.588 117.688 146.188 117.24 147.004 116.92C147.82 116.584 148.884 116.416 150.196 116.416H153.628V118.6H150.604C149.724 118.6 149.116 118.744 148.78 119.032C148.46 119.32 148.3 119.68 148.3 120.112C148.3 120.592 148.484 120.976 148.852 121.264C149.236 121.536 149.756 121.672 150.412 121.672C151.036 121.672 151.596 121.528 152.092 121.24C152.588 120.936 152.948 120.496 153.172 119.92L153.748 121.648C153.476 122.48 152.98 123.112 152.26 123.544C151.54 123.976 150.612 124.192 149.476 124.192ZM160.405 124V106.192H164.149V124H160.405ZM179.9 124.192C178.38 124.192 177.196 123.808 176.348 123.04C175.5 122.256 175.076 121.096 175.076 119.56V108.232H178.82V119.512C178.82 120.056 178.964 120.48 179.252 120.784C179.54 121.072 179.932 121.216 180.428 121.216C181.02 121.216 181.524 121.056 181.94 120.736L182.948 123.376C182.564 123.648 182.1 123.856 181.556 124C181.028 124.128 180.476 124.192 179.9 124.192ZM173.084 114.256V111.376H182.036V114.256H173.084ZM190.895 124.192C189.519 124.192 188.295 123.904 187.223 123.328C186.167 122.752 185.327 121.968 184.703 120.976C184.095 119.968 183.791 118.824 183.791 117.544C183.791 116.248 184.095 115.104 184.703 114.112C185.327 113.104 186.167 112.32 187.223 111.76C188.295 111.184 189.519 110.896 190.895 110.896C192.255 110.896 193.471 111.184 194.543 111.76C195.615 112.32 196.455 113.096 197.063 114.088C197.671 115.08 197.975 116.232 197.975 117.544C197.975 118.824 197.671 119.968 197.063 120.976C196.455 121.968 195.615 122.752 194.543 123.328C193.471 123.904 192.255 124.192 190.895 124.192ZM190.895 121.12C191.519 121.12 192.079 120.976 192.575 120.688C193.071 120.4 193.463 119.992 193.751 119.464C194.039 118.92 194.183 118.28 194.183 117.544C194.183 116.792 194.039 116.152 193.751 115.624C193.463 115.096 193.071 114.688 192.575 114.4C192.079 114.112 191.519 113.968 190.895 113.968C190.271 113.968 189.711 114.112 189.215 114.4C188.719 114.688 188.319 115.096 188.015 115.624C187.727 116.152 187.583 116.792 187.583 117.544C187.583 118.28 187.727 118.92 188.015 119.464C188.319 119.992 188.719 120.4 189.215 120.688C189.711 120.976 190.271 121.12 190.895 121.12ZM208.21 124.192C207.122 124.192 206.17 123.952 205.354 123.472C204.538 122.992 203.898 122.264 203.434 121.288C202.986 120.296 202.762 119.048 202.762 117.544C202.762 116.024 202.978 114.776 203.41 113.8C203.842 112.824 204.466 112.096 205.282 111.616C206.098 111.136 207.074 110.896 208.21 110.896C209.426 110.896 210.514 111.176 211.474 111.736C212.45 112.28 213.218 113.048 213.778 114.04C214.354 115.032 214.642 116.2 214.642 117.544C214.642 118.904 214.354 120.08 213.778 121.072C213.218 122.064 212.45 122.832 211.474 123.376C210.514 123.92 209.426 124.192 208.21 124.192ZM200.578 128.656V111.088H204.154V113.728L204.082 117.568L204.322 121.384V128.656H200.578ZM207.562 121.12C208.186 121.12 208.738 120.976 209.218 120.688C209.714 120.4 210.106 119.992 210.394 119.464C210.698 118.92 210.85 118.28 210.85 117.544C210.85 116.792 210.698 116.152 210.394 115.624C210.106 115.096 209.714 114.688 209.218 114.4C208.738 114.112 208.186 113.968 207.562 113.968C206.938 113.968 206.378 114.112 205.882 114.4C205.386 114.688 204.994 115.096 204.706 115.624C204.418 116.152 204.274 116.792 204.274 117.544C204.274 118.28 204.418 118.92 204.706 119.464C204.994 119.992 205.386 120.4 205.882 120.688C206.378 120.976 206.938 121.12 207.562 121.12ZM229.065 124.288C227.897 124.288 226.737 124.136 225.585 123.832C224.449 123.512 223.473 123.064 222.657 122.488L224.193 119.512C224.833 119.976 225.569 120.344 226.401 120.616C227.249 120.888 228.105 121.024 228.969 121.024C229.945 121.024 230.713 120.832 231.273 120.448C231.833 120.064 232.113 119.528 232.113 118.84C232.113 118.408 232.001 118.024 231.777 117.688C231.553 117.352 231.153 117.096 230.577 116.92C230.017 116.744 229.225 116.656 228.201 116.656H223.905L224.769 107.2H235.017V110.32H226.161L228.177 108.544L227.577 115.288L225.561 113.512H229.113C230.777 113.512 232.113 113.744 233.121 114.208C234.145 114.656 234.889 115.272 235.353 116.056C235.817 116.84 236.049 117.728 236.049 118.72C236.049 119.712 235.801 120.632 235.305 121.48C234.809 122.312 234.041 122.992 233.001 123.52C231.977 124.032 230.665 124.288 229.065 124.288ZM244.927 124.288C243.551 124.288 242.319 123.952 241.231 123.28C240.143 122.592 239.287 121.6 238.663 120.304C238.039 119.008 237.727 117.44 237.727 115.6C237.727 113.76 238.039 112.192 238.663 110.896C239.287 109.6 240.143 108.616 241.231 107.944C242.319 107.256 243.551 106.912 244.927 106.912C246.319 106.912 247.551 107.256 248.623 107.944C249.711 108.616 250.567 109.6 251.191 110.896C251.815 112.192 252.127 113.76 252.127 115.6C252.127 117.44 251.815 119.008 251.191 120.304C250.567 121.6 249.711 122.592 248.623 123.28C247.551 123.952 246.319 124.288 244.927 124.288ZM244.927 121C245.583 121 246.151 120.816 246.631 120.448C247.127 120.08 247.511 119.496 247.783 118.696C248.071 117.896 248.215 116.864 248.215 115.6C248.215 114.336 248.071 113.304 247.783 112.504C247.511 111.704 247.127 111.12 246.631 110.752C246.151 110.384 245.583 110.2 244.927 110.2C244.287 110.2 243.719 110.384 243.223 110.752C242.743 111.12 242.359 111.704 242.071 112.504C241.799 113.304 241.663 114.336 241.663 115.6C241.663 116.864 241.799 117.896 242.071 118.696C242.359 119.496 242.743 120.08 243.223 120.448C243.719 120.816 244.287 121 244.927 121ZM262.261 124V110.8C262.261 109.344 262.693 108.184 263.557 107.32C264.421 106.44 265.653 106 267.253 106C267.797 106 268.317 106.056 268.813 106.168C269.325 106.28 269.757 106.456 270.109 106.696L269.125 109.408C268.917 109.264 268.685 109.152 268.429 109.072C268.173 108.992 267.901 108.952 267.613 108.952C267.069 108.952 266.645 109.112 266.341 109.432C266.053 109.736 265.909 110.2 265.909 110.824V112.024L266.005 113.632V124H262.261ZM260.269 114.256V111.376H269.221V114.256H260.269ZM271.333 124V111.088H275.077V124H271.333ZM273.205 109.288C272.517 109.288 271.957 109.088 271.525 108.688C271.093 108.288 270.877 107.792 270.877 107.2C270.877 106.608 271.093 106.112 271.525 105.712C271.957 105.312 272.517 105.112 273.205 105.112C273.893 105.112 274.453 105.304 274.885 105.688C275.317 106.056 275.533 106.536 275.533 107.128C275.533 107.752 275.317 108.272 274.885 108.688C274.469 109.088 273.909 109.288 273.205 109.288ZM278.639 124V111.088H282.215V114.736L281.711 113.68C282.095 112.768 282.711 112.08 283.559 111.616C284.407 111.136 285.439 110.896 286.655 110.896V114.352C286.495 114.336 286.351 114.328 286.223 114.328C286.095 114.312 285.959 114.304 285.815 114.304C284.791 114.304 283.959 114.6 283.319 115.192C282.695 115.768 282.383 116.672 282.383 117.904V124H278.639ZM305.541 110.896C306.565 110.896 307.469 111.104 308.253 111.52C309.053 111.92 309.677 112.544 310.125 113.392C310.589 114.224 310.821 115.296 310.821 116.608V124H307.077V117.184C307.077 116.144 306.861 115.376 306.429 114.88C305.997 114.384 305.389 114.136 304.605 114.136C304.061 114.136 303.573 114.264 303.141 114.52C302.709 114.76 302.373 115.128 302.133 115.624C301.893 116.12 301.773 116.752 301.773 117.52V124H298.029V117.184C298.029 116.144 297.813 115.376 297.381 114.88C296.965 114.384 296.365 114.136 295.581 114.136C295.037 114.136 294.549 114.264 294.117 114.52C293.685 114.76 293.349 115.128 293.109 115.624C292.869 116.12 292.749 116.752 292.749 117.52V124H289.005V111.088H292.581V114.616L291.909 113.584C292.357 112.704 292.989 112.04 293.805 111.592C294.637 111.128 295.581 110.896 296.637 110.896C297.821 110.896 298.853 111.2 299.733 111.808C300.629 112.4 301.221 113.312 301.509 114.544L300.189 114.184C300.621 113.176 301.309 112.376 302.253 111.784C303.213 111.192 304.309 110.896 305.541 110.896ZM318.62 124.192C317.516 124.192 316.452 124.064 315.428 123.808C314.42 123.536 313.62 123.2 313.028 122.8L314.276 120.112C314.868 120.48 315.564 120.784 316.364 121.024C317.18 121.248 317.98 121.36 318.764 121.36C319.628 121.36 320.236 121.256 320.588 121.048C320.956 120.84 321.14 120.552 321.14 120.184C321.14 119.88 320.996 119.656 320.708 119.512C320.436 119.352 320.068 119.232 319.604 119.152C319.14 119.072 318.628 118.992 318.068 118.912C317.524 118.832 316.972 118.728 316.412 118.6C315.852 118.456 315.34 118.248 314.876 117.976C314.412 117.704 314.036 117.336 313.748 116.872C313.476 116.408 313.34 115.808 313.34 115.072C313.34 114.256 313.572 113.536 314.036 112.912C314.516 112.288 315.204 111.8 316.1 111.448C316.996 111.08 318.068 110.896 319.316 110.896C320.196 110.896 321.092 110.992 322.004 111.184C322.916 111.376 323.676 111.656 324.284 112.024L323.036 114.688C322.412 114.32 321.78 114.072 321.14 113.944C320.516 113.8 319.908 113.728 319.316 113.728C318.484 113.728 317.876 113.84 317.492 114.064C317.108 114.288 316.916 114.576 316.916 114.928C316.916 115.248 317.052 115.488 317.324 115.648C317.612 115.808 317.988 115.936 318.452 116.032C318.916 116.128 319.42 116.216 319.964 116.296C320.524 116.36 321.084 116.464 321.644 116.608C322.204 116.752 322.708 116.96 323.156 117.232C323.62 117.488 323.996 117.848 324.284 118.312C324.572 118.76 324.716 119.352 324.716 120.088C324.716 120.888 324.476 121.6 323.996 122.224C323.516 122.832 322.82 123.312 321.908 123.664C321.012 124.016 319.916 124.192 318.62 124.192Z" fill="#252B42"/>
<path d="M61.73 156.112C61.1513 156.112 60.61 155.991 60.106 155.748C59.602 155.505 59.1913 155.155 58.874 154.698L59.686 153.746C59.9567 154.119 60.26 154.409 60.596 154.614C60.9413 154.81 61.3193 154.908 61.73 154.908C62.85 154.908 63.41 154.245 63.41 152.92V147.418H59.868V146.2H64.796V152.85C64.796 153.942 64.5347 154.759 64.012 155.3C63.4987 155.841 62.738 156.112 61.73 156.112ZM70.7737 156.084C70.1391 156.084 69.5791 155.967 69.0937 155.734C68.6177 155.501 68.2444 155.146 67.9737 154.67C67.7124 154.185 67.5817 153.578 67.5817 152.85V148.58H68.9257V152.696C68.9257 153.424 69.0984 153.97 69.4437 154.334C69.7984 154.698 70.2931 154.88 70.9277 154.88C71.3944 154.88 71.8004 154.787 72.1457 154.6C72.4911 154.404 72.7571 154.124 72.9437 153.76C73.1304 153.387 73.2237 152.939 73.2237 152.416V148.58H74.5677V156H73.2937V153.998L73.5037 154.53C73.2611 155.025 72.8971 155.407 72.4117 155.678C71.9264 155.949 71.3804 156.084 70.7737 156.084ZM79.4543 156.084C78.8383 156.084 78.2503 156 77.6903 155.832C77.1397 155.664 76.7057 155.459 76.3883 155.216L76.9483 154.152C77.2657 154.367 77.6577 154.549 78.1243 154.698C78.591 154.847 79.067 154.922 79.5523 154.922C80.1777 154.922 80.6257 154.833 80.8963 154.656C81.1763 154.479 81.3163 154.231 81.3163 153.914C81.3163 153.681 81.2323 153.499 81.0643 153.368C80.8963 153.237 80.6723 153.139 80.3923 153.074C80.1217 153.009 79.8183 152.953 79.4823 152.906C79.1463 152.85 78.8103 152.785 78.4743 152.71C78.1383 152.626 77.8303 152.514 77.5503 152.374C77.2703 152.225 77.0463 152.024 76.8783 151.772C76.7103 151.511 76.6263 151.165 76.6263 150.736C76.6263 150.288 76.7523 149.896 77.0043 149.56C77.2563 149.224 77.611 148.967 78.0683 148.79C78.535 148.603 79.0857 148.51 79.7203 148.51C80.2057 148.51 80.6957 148.571 81.1903 148.692C81.6943 148.804 82.105 148.967 82.4223 149.182L81.8483 150.246C81.5123 150.022 81.1623 149.868 80.7983 149.784C80.4343 149.7 80.0703 149.658 79.7063 149.658C79.1183 149.658 78.6797 149.756 78.3903 149.952C78.101 150.139 77.9563 150.381 77.9563 150.68C77.9563 150.932 78.0403 151.128 78.2083 151.268C78.3857 151.399 78.6097 151.501 78.8803 151.576C79.1603 151.651 79.4683 151.716 79.8043 151.772C80.1403 151.819 80.4763 151.884 80.8123 151.968C81.1483 152.043 81.4517 152.15 81.7223 152.29C82.0023 152.43 82.2263 152.626 82.3943 152.878C82.5717 153.13 82.6603 153.466 82.6603 153.886C82.6603 154.334 82.5297 154.721 82.2683 155.048C82.007 155.375 81.6383 155.631 81.1623 155.818C80.6863 155.995 80.117 156.084 79.4543 156.084ZM87.088 156.084C86.3413 156.084 85.7627 155.883 85.352 155.482C84.9413 155.081 84.736 154.507 84.736 153.76V146.956H86.08V153.704C86.08 154.105 86.178 154.413 86.374 154.628C86.5793 154.843 86.8687 154.95 87.242 154.95C87.662 154.95 88.012 154.833 88.292 154.6L88.712 155.566C88.5067 155.743 88.2593 155.874 87.97 155.958C87.69 156.042 87.396 156.084 87.088 156.084ZM83.476 149.686V148.58H88.208V149.686H83.476ZM97.0447 156.084C96.298 156.084 95.7193 155.883 95.3087 155.482C94.898 155.081 94.6927 154.507 94.6927 153.76V146.956H96.0367V153.704C96.0367 154.105 96.1347 154.413 96.3307 154.628C96.536 154.843 96.8253 154.95 97.1987 154.95C97.6187 154.95 97.9687 154.833 98.2487 154.6L98.6687 155.566C98.4633 155.743 98.216 155.874 97.9267 155.958C97.6467 156.042 97.3527 156.084 97.0447 156.084ZM93.4327 149.686V148.58H98.1647V149.686H93.4327ZM100.679 158.8C100.324 158.8 99.9788 158.739 99.6428 158.618C99.3068 158.506 99.0175 158.338 98.7748 158.114L99.3488 157.106C99.5355 157.283 99.7408 157.419 99.9648 157.512C100.189 157.605 100.427 157.652 100.679 157.652C101.005 157.652 101.276 157.568 101.491 157.4C101.705 157.232 101.906 156.933 102.093 156.504L102.555 155.482L102.695 155.314L105.607 148.58H106.923L103.325 156.742C103.11 157.265 102.867 157.675 102.597 157.974C102.335 158.273 102.046 158.483 101.729 158.604C101.411 158.735 101.061 158.8 100.679 158.8ZM102.443 156.238L99.0548 148.58H100.455L103.339 155.188L102.443 156.238ZM112.311 156.084C111.695 156.084 111.13 155.944 110.617 155.664C110.113 155.375 109.707 154.95 109.399 154.39C109.1 153.83 108.951 153.13 108.951 152.29C108.951 151.45 109.096 150.75 109.385 150.19C109.684 149.63 110.085 149.21 110.589 148.93C111.102 148.65 111.676 148.51 112.311 148.51C113.039 148.51 113.683 148.669 114.243 148.986C114.803 149.303 115.246 149.747 115.573 150.316C115.9 150.876 116.063 151.534 116.063 152.29C116.063 153.046 115.9 153.709 115.573 154.278C115.246 154.847 114.803 155.291 114.243 155.608C113.683 155.925 113.039 156.084 112.311 156.084ZM108.377 158.716V148.58H109.665V150.582L109.581 152.304L109.721 154.026V158.716H108.377ZM112.199 154.908C112.675 154.908 113.1 154.801 113.473 154.586C113.856 154.371 114.154 154.068 114.369 153.676C114.593 153.275 114.705 152.813 114.705 152.29C114.705 151.758 114.593 151.301 114.369 150.918C114.154 150.526 113.856 150.223 113.473 150.008C113.1 149.793 112.675 149.686 112.199 149.686C111.732 149.686 111.308 149.793 110.925 150.008C110.552 150.223 110.253 150.526 110.029 150.918C109.814 151.301 109.707 151.758 109.707 152.29C109.707 152.813 109.814 153.275 110.029 153.676C110.253 154.068 110.552 154.371 110.925 154.586C111.308 154.801 111.732 154.908 112.199 154.908ZM121.424 156.084C120.631 156.084 119.931 155.921 119.324 155.594C118.727 155.267 118.26 154.819 117.924 154.25C117.597 153.681 117.434 153.027 117.434 152.29C117.434 151.553 117.593 150.899 117.91 150.33C118.237 149.761 118.68 149.317 119.24 149C119.809 148.673 120.449 148.51 121.158 148.51C121.877 148.51 122.511 148.669 123.062 148.986C123.613 149.303 124.042 149.751 124.35 150.33C124.667 150.899 124.826 151.567 124.826 152.332C124.826 152.388 124.821 152.453 124.812 152.528C124.812 152.603 124.807 152.673 124.798 152.738H118.484V151.772H124.098L123.552 152.108C123.561 151.632 123.463 151.207 123.258 150.834C123.053 150.461 122.768 150.171 122.404 149.966C122.049 149.751 121.634 149.644 121.158 149.644C120.691 149.644 120.276 149.751 119.912 149.966C119.548 150.171 119.263 150.465 119.058 150.848C118.853 151.221 118.75 151.651 118.75 152.136V152.36C118.75 152.855 118.862 153.298 119.086 153.69C119.319 154.073 119.641 154.371 120.052 154.586C120.463 154.801 120.934 154.908 121.466 154.908C121.905 154.908 122.301 154.833 122.656 154.684C123.02 154.535 123.337 154.311 123.608 154.012L124.35 154.88C124.014 155.272 123.594 155.571 123.09 155.776C122.595 155.981 122.04 156.084 121.424 156.084ZM132.42 156L129.662 148.58H130.936L133.386 155.3H132.784L135.332 148.58H136.466L138.958 155.3H138.37L140.876 148.58H142.08L139.308 156H138.02L135.682 149.868H136.074L133.708 156H132.42ZM147.606 148.51C148.213 148.51 148.745 148.627 149.202 148.86C149.669 149.093 150.033 149.448 150.294 149.924C150.555 150.4 150.686 151.002 150.686 151.73V156H149.342V151.884C149.342 151.165 149.165 150.624 148.81 150.26C148.465 149.896 147.975 149.714 147.34 149.714C146.864 149.714 146.449 149.807 146.094 149.994C145.739 150.181 145.464 150.456 145.268 150.82C145.081 151.184 144.988 151.637 144.988 152.178V156H143.644V145.612H144.988V150.582L144.722 150.05C144.965 149.565 145.338 149.187 145.842 148.916C146.346 148.645 146.934 148.51 147.606 148.51ZM157.979 156V154.432L157.909 154.138V151.464C157.909 150.895 157.741 150.456 157.405 150.148C157.079 149.831 156.584 149.672 155.921 149.672C155.483 149.672 155.053 149.747 154.633 149.896C154.213 150.036 153.859 150.227 153.569 150.47L153.009 149.462C153.392 149.154 153.849 148.921 154.381 148.762C154.923 148.594 155.487 148.51 156.075 148.51C157.093 148.51 157.877 148.757 158.427 149.252C158.978 149.747 159.253 150.503 159.253 151.52V156H157.979ZM155.543 156.084C154.993 156.084 154.507 155.991 154.087 155.804C153.677 155.617 153.359 155.361 153.135 155.034C152.911 154.698 152.799 154.32 152.799 153.9C152.799 153.499 152.893 153.135 153.079 152.808C153.275 152.481 153.588 152.22 154.017 152.024C154.456 151.828 155.044 151.73 155.781 151.73H158.133V152.696H155.837C155.165 152.696 154.713 152.808 154.479 153.032C154.246 153.256 154.129 153.527 154.129 153.844C154.129 154.208 154.274 154.502 154.563 154.726C154.853 154.941 155.254 155.048 155.767 155.048C156.271 155.048 156.71 154.936 157.083 154.712C157.466 154.488 157.741 154.161 157.909 153.732L158.175 154.656C157.998 155.095 157.685 155.445 157.237 155.706C156.789 155.958 156.225 156.084 155.543 156.084ZM164.488 156.084C163.742 156.084 163.163 155.883 162.752 155.482C162.342 155.081 162.136 154.507 162.136 153.76V146.956H163.48V153.704C163.48 154.105 163.578 154.413 163.774 154.628C163.98 154.843 164.269 154.95 164.642 154.95C165.062 154.95 165.412 154.833 165.692 154.6L166.112 155.566C165.907 155.743 165.66 155.874 165.37 155.958C165.09 156.042 164.796 156.084 164.488 156.084ZM160.876 149.686V148.58H165.608V149.686H160.876ZM167.629 149.98L167.545 146.2H168.721L168.623 149.98H167.629ZM173.205 156.084C172.589 156.084 172.001 156 171.441 155.832C170.89 155.664 170.456 155.459 170.139 155.216L170.699 154.152C171.016 154.367 171.408 154.549 171.875 154.698C172.341 154.847 172.817 154.922 173.303 154.922C173.928 154.922 174.376 154.833 174.647 154.656C174.927 154.479 175.067 154.231 175.067 153.914C175.067 153.681 174.983 153.499 174.815 153.368C174.647 153.237 174.423 153.139 174.143 153.074C173.872 153.009 173.569 152.953 173.233 152.906C172.897 152.85 172.561 152.785 172.225 152.71C171.889 152.626 171.581 152.514 171.301 152.374C171.021 152.225 170.797 152.024 170.629 151.772C170.461 151.511 170.377 151.165 170.377 150.736C170.377 150.288 170.503 149.896 170.755 149.56C171.007 149.224 171.361 148.967 171.819 148.79C172.285 148.603 172.836 148.51 173.471 148.51C173.956 148.51 174.446 148.571 174.941 148.692C175.445 148.804 175.855 148.967 176.173 149.182L175.599 150.246C175.263 150.022 174.913 149.868 174.549 149.784C174.185 149.7 173.821 149.658 173.457 149.658C172.869 149.658 172.43 149.756 172.141 149.952C171.851 150.139 171.707 150.381 171.707 150.68C171.707 150.932 171.791 151.128 171.959 151.268C172.136 151.399 172.36 151.501 172.631 151.576C172.911 151.651 173.219 151.716 173.555 151.772C173.891 151.819 174.227 151.884 174.563 151.968C174.899 152.043 175.202 152.15 175.473 152.29C175.753 152.43 175.977 152.626 176.145 152.878C176.322 153.13 176.411 153.466 176.411 153.886C176.411 154.334 176.28 154.721 176.019 155.048C175.757 155.375 175.389 155.631 174.913 155.818C174.437 155.995 173.867 156.084 173.205 156.084ZM185.428 156.084C184.682 156.084 184.019 155.921 183.44 155.594C182.862 155.267 182.404 154.819 182.068 154.25C181.732 153.671 181.564 153.018 181.564 152.29C181.564 151.553 181.732 150.899 182.068 150.33C182.404 149.761 182.862 149.317 183.44 149C184.019 148.673 184.682 148.51 185.428 148.51C186.166 148.51 186.824 148.673 187.402 149C187.99 149.317 188.448 149.761 188.774 150.33C189.11 150.89 189.278 151.543 189.278 152.29C189.278 153.027 189.11 153.681 188.774 154.25C188.448 154.819 187.99 155.267 187.402 155.594C186.824 155.921 186.166 156.084 185.428 156.084ZM185.428 154.908C185.904 154.908 186.329 154.801 186.702 154.586C187.085 154.371 187.384 154.068 187.598 153.676C187.813 153.275 187.92 152.813 187.92 152.29C187.92 151.758 187.813 151.301 187.598 150.918C187.384 150.526 187.085 150.223 186.702 150.008C186.329 149.793 185.904 149.686 185.428 149.686C184.952 149.686 184.528 149.793 184.154 150.008C183.781 150.223 183.482 150.526 183.258 150.918C183.034 151.301 182.922 151.758 182.922 152.29C182.922 152.813 183.034 153.275 183.258 153.676C183.482 154.068 183.781 154.371 184.154 154.586C184.528 154.801 184.952 154.908 185.428 154.908ZM195.299 148.51C195.906 148.51 196.438 148.627 196.895 148.86C197.362 149.093 197.726 149.448 197.987 149.924C198.248 150.4 198.379 151.002 198.379 151.73V156H197.035V151.884C197.035 151.165 196.858 150.624 196.503 150.26C196.158 149.896 195.668 149.714 195.033 149.714C194.557 149.714 194.142 149.807 193.787 149.994C193.432 150.181 193.157 150.456 192.961 150.82C192.774 151.184 192.681 151.637 192.681 152.178V156H191.337V148.58H192.625V150.582L192.415 150.05C192.658 149.565 193.031 149.187 193.535 148.916C194.039 148.645 194.627 148.51 195.299 148.51ZM205.348 158.8C204.993 158.8 204.648 158.739 204.312 158.618C203.976 158.506 203.687 158.338 203.444 158.114L204.018 157.106C204.205 157.283 204.41 157.419 204.634 157.512C204.858 157.605 205.096 157.652 205.348 157.652C205.675 157.652 205.945 157.568 206.16 157.4C206.375 157.232 206.575 156.933 206.762 156.504L207.224 155.482L207.364 155.314L210.276 148.58H211.592L207.994 156.742C207.779 157.265 207.537 157.675 207.266 157.974C207.005 158.273 206.715 158.483 206.398 158.604C206.081 158.735 205.731 158.8 205.348 158.8ZM207.112 156.238L203.724 148.58H205.124L208.008 155.188L207.112 156.238ZM216.019 156.084C215.273 156.084 214.61 155.921 214.031 155.594C213.453 155.267 212.995 154.819 212.659 154.25C212.323 153.671 212.155 153.018 212.155 152.29C212.155 151.553 212.323 150.899 212.659 150.33C212.995 149.761 213.453 149.317 214.031 149C214.61 148.673 215.273 148.51 216.019 148.51C216.757 148.51 217.415 148.673 217.993 149C218.581 149.317 219.039 149.761 219.365 150.33C219.701 150.89 219.869 151.543 219.869 152.29C219.869 153.027 219.701 153.681 219.365 154.25C219.039 154.819 218.581 155.267 217.993 155.594C217.415 155.921 216.757 156.084 216.019 156.084ZM216.019 154.908C216.495 154.908 216.92 154.801 217.293 154.586C217.676 154.371 217.975 154.068 218.189 153.676C218.404 153.275 218.511 152.813 218.511 152.29C218.511 151.758 218.404 151.301 218.189 150.918C217.975 150.526 217.676 150.223 217.293 150.008C216.92 149.793 216.495 149.686 216.019 149.686C215.543 149.686 215.119 149.793 214.745 150.008C214.372 150.223 214.073 150.526 213.849 150.918C213.625 151.301 213.513 151.758 213.513 152.29C213.513 152.813 213.625 153.275 213.849 153.676C214.073 154.068 214.372 154.371 214.745 154.586C215.119 154.801 215.543 154.908 216.019 154.908ZM225.05 156.084C224.415 156.084 223.855 155.967 223.37 155.734C222.894 155.501 222.521 155.146 222.25 154.67C221.989 154.185 221.858 153.578 221.858 152.85V148.58H223.202V152.696C223.202 153.424 223.375 153.97 223.72 154.334C224.075 154.698 224.569 154.88 225.204 154.88C225.671 154.88 226.077 154.787 226.422 154.6C226.767 154.404 227.033 154.124 227.22 153.76C227.407 153.387 227.5 152.939 227.5 152.416V148.58H228.844V156H227.57V153.998L227.78 154.53C227.537 155.025 227.173 155.407 226.688 155.678C226.203 155.949 225.657 156.084 225.05 156.084ZM231.603 156V148.58H232.891V150.596L232.765 150.092C232.97 149.579 233.315 149.187 233.801 148.916C234.286 148.645 234.883 148.51 235.593 148.51V149.812C235.537 149.803 235.481 149.798 235.425 149.798C235.378 149.798 235.331 149.798 235.285 149.798C234.566 149.798 233.997 150.013 233.577 150.442C233.157 150.871 232.947 151.492 232.947 152.304V156H231.603ZM250.786 148.51C251.384 148.51 251.911 148.627 252.368 148.86C252.826 149.093 253.18 149.448 253.432 149.924C253.694 150.4 253.824 151.002 253.824 151.73V156H252.48V151.884C252.48 151.165 252.312 150.624 251.976 150.26C251.64 149.896 251.169 149.714 250.562 149.714C250.114 149.714 249.722 149.807 249.386 149.994C249.05 150.181 248.789 150.456 248.602 150.82C248.425 151.184 248.336 151.637 248.336 152.178V156H246.992V151.884C246.992 151.165 246.824 150.624 246.488 150.26C246.162 149.896 245.69 149.714 245.074 149.714C244.636 149.714 244.248 149.807 243.912 149.994C243.576 150.181 243.315 150.456 243.128 150.82C242.942 151.184 242.848 151.637 242.848 152.178V156H241.504V148.58H242.792V150.554L242.582 150.05C242.816 149.565 243.175 149.187 243.66 148.916C244.146 148.645 244.71 148.51 245.354 148.51C246.064 148.51 246.675 148.687 247.188 149.042C247.702 149.387 248.038 149.915 248.196 150.624L247.65 150.4C247.874 149.831 248.266 149.373 248.826 149.028C249.386 148.683 250.04 148.51 250.786 148.51ZM256.497 156V148.58H257.841V156H256.497ZM257.169 147.152C256.908 147.152 256.689 147.068 256.511 146.9C256.343 146.732 256.259 146.527 256.259 146.284C256.259 146.032 256.343 145.822 256.511 145.654C256.689 145.486 256.908 145.402 257.169 145.402C257.431 145.402 257.645 145.486 257.813 145.654C257.991 145.813 258.079 146.013 258.079 146.256C258.079 146.508 257.995 146.723 257.827 146.9C257.659 147.068 257.44 147.152 257.169 147.152ZM264.57 148.51C265.176 148.51 265.708 148.627 266.166 148.86C266.632 149.093 266.996 149.448 267.258 149.924C267.519 150.4 267.65 151.002 267.65 151.73V156H266.306V151.884C266.306 151.165 266.128 150.624 265.774 150.26C265.428 149.896 264.938 149.714 264.304 149.714C263.828 149.714 263.412 149.807 263.058 149.994C262.703 150.181 262.428 150.456 262.232 150.82C262.045 151.184 261.952 151.637 261.952 152.178V156H260.608V148.58H261.896V150.582L261.686 150.05C261.928 149.565 262.302 149.187 262.806 148.916C263.31 148.645 263.898 148.51 264.57 148.51ZM273.403 156.084C272.684 156.084 272.04 155.925 271.471 155.608C270.911 155.291 270.468 154.847 270.141 154.278C269.814 153.709 269.651 153.046 269.651 152.29C269.651 151.534 269.814 150.876 270.141 150.316C270.468 149.747 270.911 149.303 271.471 148.986C272.04 148.669 272.684 148.51 273.403 148.51C274.028 148.51 274.593 148.65 275.097 148.93C275.601 149.21 276.002 149.63 276.301 150.19C276.609 150.75 276.763 151.45 276.763 152.29C276.763 153.13 276.614 153.83 276.315 154.39C276.026 154.95 275.629 155.375 275.125 155.664C274.621 155.944 274.047 156.084 273.403 156.084ZM273.515 154.908C273.982 154.908 274.402 154.801 274.775 154.586C275.158 154.371 275.456 154.068 275.671 153.676C275.895 153.275 276.007 152.813 276.007 152.29C276.007 151.758 275.895 151.301 275.671 150.918C275.456 150.526 275.158 150.223 274.775 150.008C274.402 149.793 273.982 149.686 273.515 149.686C273.039 149.686 272.614 149.793 272.241 150.008C271.868 150.223 271.569 150.526 271.345 150.918C271.121 151.301 271.009 151.758 271.009 152.29C271.009 152.813 271.121 153.275 271.345 153.676C271.569 154.068 271.868 154.371 272.241 154.586C272.614 154.801 273.039 154.908 273.515 154.908ZM276.049 156V153.998L276.133 152.276L275.993 150.554V145.612H277.337V156H276.049ZM64.88 176V174.432L64.81 174.138V171.464C64.81 170.895 64.642 170.456 64.306 170.148C63.9793 169.831 63.4847 169.672 62.822 169.672C62.3833 169.672 61.954 169.747 61.534 169.896C61.114 170.036 60.7593 170.227 60.47 170.47L59.91 169.462C60.2927 169.154 60.75 168.921 61.282 168.762C61.8233 168.594 62.388 168.51 62.976 168.51C63.9933 168.51 64.7773 168.757 65.328 169.252C65.8787 169.747 66.154 170.503 66.154 171.52V176H64.88ZM62.444 176.084C61.8933 176.084 61.408 175.991 60.988 175.804C60.5773 175.617 60.26 175.361 60.036 175.034C59.812 174.698 59.7 174.32 59.7 173.9C59.7 173.499 59.7933 173.135 59.98 172.808C60.176 172.481 60.4887 172.22 60.918 172.024C61.3567 171.828 61.9447 171.73 62.682 171.73H65.034V172.696H62.738C62.066 172.696 61.6133 172.808 61.38 173.032C61.1467 173.256 61.03 173.527 61.03 173.844C61.03 174.208 61.1747 174.502 61.464 174.726C61.7533 174.941 62.1547 175.048 62.668 175.048C63.172 175.048 63.6107 174.936 63.984 174.712C64.3667 174.488 64.642 174.161 64.81 173.732L65.076 174.656C64.8987 175.095 64.586 175.445 64.138 175.706C63.69 175.958 63.1253 176.084 62.444 176.084ZM72.8032 168.51C73.4099 168.51 73.9419 168.627 74.3992 168.86C74.8659 169.093 75.2299 169.448 75.4912 169.924C75.7525 170.4 75.8832 171.002 75.8832 171.73V176H74.5392V171.884C74.5392 171.165 74.3619 170.624 74.0072 170.26C73.6619 169.896 73.1719 169.714 72.5372 169.714C72.0612 169.714 71.6459 169.807 71.2912 169.994C70.9365 170.181 70.6612 170.456 70.4652 170.82C70.2785 171.184 70.1852 171.637 70.1852 172.178V176H68.8412V168.58H70.1292V170.582L69.9192 170.05C70.1619 169.565 70.5352 169.187 71.0392 168.916C71.5432 168.645 72.1312 168.51 72.8032 168.51ZM81.6365 176.084C80.9178 176.084 80.2738 175.925 79.7045 175.608C79.1445 175.291 78.7012 174.847 78.3745 174.278C78.0478 173.709 77.8845 173.046 77.8845 172.29C77.8845 171.534 78.0478 170.876 78.3745 170.316C78.7012 169.747 79.1445 169.303 79.7045 168.986C80.2738 168.669 80.9178 168.51 81.6365 168.51C82.2618 168.51 82.8265 168.65 83.3305 168.93C83.8345 169.21 84.2358 169.63 84.5345 170.19C84.8425 170.75 84.9965 171.45 84.9965 172.29C84.9965 173.13 84.8472 173.83 84.5485 174.39C84.2592 174.95 83.8625 175.375 83.3585 175.664C82.8545 175.944 82.2805 176.084 81.6365 176.084ZM81.7485 174.908C82.2152 174.908 82.6352 174.801 83.0085 174.586C83.3912 174.371 83.6898 174.068 83.9045 173.676C84.1285 173.275 84.2405 172.813 84.2405 172.29C84.2405 171.758 84.1285 171.301 83.9045 170.918C83.6898 170.526 83.3912 170.223 83.0085 170.008C82.6352 169.793 82.2152 169.686 81.7485 169.686C81.2725 169.686 80.8478 169.793 80.4745 170.008C80.1012 170.223 79.8025 170.526 79.5785 170.918C79.3545 171.301 79.2425 171.758 79.2425 172.29C79.2425 172.813 79.3545 173.275 79.5785 173.676C79.8025 174.068 80.1012 174.371 80.4745 174.586C80.8478 174.801 81.2725 174.908 81.7485 174.908ZM84.2825 176V173.998L84.3665 172.276L84.2265 170.554V165.612H85.5705V176H84.2825ZM93.8412 176L91.0832 168.58H92.3572L94.8072 175.3H94.2052L96.7532 168.58H97.8872L100.379 175.3H99.7912L102.297 168.58H103.501L100.729 176H99.4412L97.1032 169.868H97.4952L95.1292 176H93.8412ZM108.164 176.084C107.371 176.084 106.671 175.921 106.064 175.594C105.467 175.267 105 174.819 104.664 174.25C104.337 173.681 104.174 173.027 104.174 172.29C104.174 171.553 104.333 170.899 104.65 170.33C104.977 169.761 105.42 169.317 105.98 169C106.549 168.673 107.189 168.51 107.898 168.51C108.617 168.51 109.251 168.669 109.802 168.986C110.353 169.303 110.782 169.751 111.09 170.33C111.407 170.899 111.566 171.567 111.566 172.332C111.566 172.388 111.561 172.453 111.552 172.528C111.552 172.603 111.547 172.673 111.538 172.738H105.224V171.772H110.838L110.292 172.108C110.301 171.632 110.203 171.207 109.998 170.834C109.793 170.461 109.508 170.171 109.144 169.966C108.789 169.751 108.374 169.644 107.898 169.644C107.431 169.644 107.016 169.751 106.652 169.966C106.288 170.171 106.003 170.465 105.798 170.848C105.593 171.221 105.49 171.651 105.49 172.136V172.36C105.49 172.855 105.602 173.298 105.826 173.69C106.059 174.073 106.381 174.371 106.792 174.586C107.203 174.801 107.674 174.908 108.206 174.908C108.645 174.908 109.041 174.833 109.396 174.684C109.76 174.535 110.077 174.311 110.348 174.012L111.09 174.88C110.754 175.272 110.334 175.571 109.83 175.776C109.335 175.981 108.78 176.084 108.164 176.084ZM113.01 169.98L112.926 166.2H114.102L114.004 169.98H113.01ZM116.457 176V165.612H117.801V176H116.457ZM120.567 176V165.612H121.911V176H120.567ZM131.885 178.8C131.204 178.8 130.541 178.702 129.897 178.506C129.263 178.319 128.745 178.049 128.343 177.694L128.987 176.658C129.333 176.957 129.757 177.19 130.261 177.358C130.765 177.535 131.293 177.624 131.843 177.624C132.721 177.624 133.365 177.419 133.775 177.008C134.186 176.597 134.391 175.972 134.391 175.132V173.564L134.531 172.094L134.461 170.61V168.58H135.735V174.992C135.735 176.299 135.409 177.26 134.755 177.876C134.102 178.492 133.145 178.8 131.885 178.8ZM131.717 175.692C130.999 175.692 130.355 175.543 129.785 175.244C129.225 174.936 128.777 174.511 128.441 173.97C128.115 173.429 127.951 172.803 127.951 172.094C127.951 171.375 128.115 170.75 128.441 170.218C128.777 169.677 129.225 169.257 129.785 168.958C130.355 168.659 130.999 168.51 131.717 168.51C132.352 168.51 132.931 168.641 133.453 168.902C133.976 169.154 134.391 169.546 134.699 170.078C135.017 170.61 135.175 171.282 135.175 172.094C135.175 172.897 135.017 173.564 134.699 174.096C134.391 174.628 133.976 175.029 133.453 175.3C132.931 175.561 132.352 175.692 131.717 175.692ZM131.871 174.516C132.366 174.516 132.805 174.413 133.187 174.208C133.57 174.003 133.869 173.718 134.083 173.354C134.307 172.99 134.419 172.57 134.419 172.094C134.419 171.618 134.307 171.198 134.083 170.834C133.869 170.47 133.57 170.19 133.187 169.994C132.805 169.789 132.366 169.686 131.871 169.686C131.377 169.686 130.933 169.789 130.541 169.994C130.159 170.19 129.855 170.47 129.631 170.834C129.417 171.198 129.309 171.618 129.309 172.094C129.309 172.57 129.417 172.99 129.631 173.354C129.855 173.718 130.159 174.003 130.541 174.208C130.933 174.413 131.377 174.516 131.871 174.516ZM141.807 176.084C141.014 176.084 140.314 175.921 139.707 175.594C139.11 175.267 138.643 174.819 138.307 174.25C137.981 173.681 137.817 173.027 137.817 172.29C137.817 171.553 137.976 170.899 138.293 170.33C138.62 169.761 139.063 169.317 139.623 169C140.193 168.673 140.832 168.51 141.541 168.51C142.26 168.51 142.895 168.669 143.445 168.986C143.996 169.303 144.425 169.751 144.733 170.33C145.051 170.899 145.209 171.567 145.209 172.332C145.209 172.388 145.205 172.453 145.195 172.528C145.195 172.603 145.191 172.673 145.181 172.738H138.867V171.772H144.481L143.935 172.108C143.945 171.632 143.847 171.207 143.641 170.834C143.436 170.461 143.151 170.171 142.787 169.966C142.433 169.751 142.017 169.644 141.541 169.644C141.075 169.644 140.659 169.751 140.295 169.966C139.931 170.171 139.647 170.465 139.441 170.848C139.236 171.221 139.133 171.651 139.133 172.136V172.36C139.133 172.855 139.245 173.298 139.469 173.69C139.703 174.073 140.025 174.371 140.435 174.586C140.846 174.801 141.317 174.908 141.849 174.908C142.288 174.908 142.685 174.833 143.039 174.684C143.403 174.535 143.721 174.311 143.991 174.012L144.733 174.88C144.397 175.272 143.977 175.571 143.473 175.776C142.979 175.981 142.423 176.084 141.807 176.084ZM149.824 176.084C149.077 176.084 148.498 175.883 148.088 175.482C147.677 175.081 147.472 174.507 147.472 173.76V166.956H148.816V173.704C148.816 174.105 148.914 174.413 149.11 174.628C149.315 174.843 149.604 174.95 149.978 174.95C150.398 174.95 150.748 174.833 151.028 174.6L151.448 175.566C151.242 175.743 150.995 175.874 150.706 175.958C150.426 176.042 150.132 176.084 149.824 176.084ZM146.212 169.686V168.58H150.944V169.686H146.212ZM157.554 178.8C157.2 178.8 156.854 178.739 156.518 178.618C156.182 178.506 155.893 178.338 155.65 178.114L156.224 177.106C156.411 177.283 156.616 177.419 156.84 177.512C157.064 177.605 157.302 177.652 157.554 177.652C157.881 177.652 158.152 177.568 158.366 177.4C158.581 177.232 158.782 176.933 158.968 176.504L159.43 175.482L159.57 175.314L162.482 168.58H163.798L160.2 176.742C159.986 177.265 159.743 177.675 159.472 177.974C159.211 178.273 158.922 178.483 158.604 178.604C158.287 178.735 157.937 178.8 157.554 178.8ZM159.318 176.238L155.93 168.58H157.33L160.214 175.188L159.318 176.238ZM168.225 176.084C167.479 176.084 166.816 175.921 166.237 175.594C165.659 175.267 165.201 174.819 164.865 174.25C164.529 173.671 164.361 173.018 164.361 172.29C164.361 171.553 164.529 170.899 164.865 170.33C165.201 169.761 165.659 169.317 166.237 169C166.816 168.673 167.479 168.51 168.225 168.51C168.963 168.51 169.621 168.673 170.199 169C170.787 169.317 171.245 169.761 171.571 170.33C171.907 170.89 172.075 171.543 172.075 172.29C172.075 173.027 171.907 173.681 171.571 174.25C171.245 174.819 170.787 175.267 170.199 175.594C169.621 175.921 168.963 176.084 168.225 176.084ZM168.225 174.908C168.701 174.908 169.126 174.801 169.499 174.586C169.882 174.371 170.181 174.068 170.395 173.676C170.61 173.275 170.717 172.813 170.717 172.29C170.717 171.758 170.61 171.301 170.395 170.918C170.181 170.526 169.882 170.223 169.499 170.008C169.126 169.793 168.701 169.686 168.225 169.686C167.749 169.686 167.325 169.793 166.951 170.008C166.578 170.223 166.279 170.526 166.055 170.918C165.831 171.301 165.719 171.758 165.719 172.29C165.719 172.813 165.831 173.275 166.055 173.676C166.279 174.068 166.578 174.371 166.951 174.586C167.325 174.801 167.749 174.908 168.225 174.908ZM177.256 176.084C176.621 176.084 176.061 175.967 175.576 175.734C175.1 175.501 174.727 175.146 174.456 174.67C174.195 174.185 174.064 173.578 174.064 172.85V168.58H175.408V172.696C175.408 173.424 175.581 173.97 175.926 174.334C176.281 174.698 176.775 174.88 177.41 174.88C177.877 174.88 178.283 174.787 178.628 174.6C178.973 174.404 179.239 174.124 179.426 173.76C179.613 173.387 179.706 172.939 179.706 172.416V168.58H181.05V176H179.776V173.998L179.986 174.53C179.743 175.025 179.379 175.407 178.894 175.678C178.409 175.949 177.863 176.084 177.256 176.084ZM190.317 176.084C189.57 176.084 188.991 175.883 188.581 175.482C188.17 175.081 187.965 174.507 187.965 173.76V166.956H189.309V173.704C189.309 174.105 189.407 174.413 189.603 174.628C189.808 174.843 190.097 174.95 190.471 174.95C190.891 174.95 191.241 174.833 191.521 174.6L191.941 175.566C191.735 175.743 191.488 175.874 191.199 175.958C190.919 176.042 190.625 176.084 190.317 176.084ZM186.705 169.686V168.58H191.437V169.686H186.705ZM197.727 168.51C198.334 168.51 198.866 168.627 199.323 168.86C199.79 169.093 200.154 169.448 200.415 169.924C200.677 170.4 200.807 171.002 200.807 171.73V176H199.463V171.884C199.463 171.165 199.286 170.624 198.931 170.26C198.586 169.896 198.096 169.714 197.461 169.714C196.985 169.714 196.57 169.807 196.215 169.994C195.861 170.181 195.585 170.456 195.389 170.82C195.203 171.184 195.109 171.637 195.109 172.178V176H193.765V165.612H195.109V170.582L194.843 170.05C195.086 169.565 195.459 169.187 195.963 168.916C196.467 168.645 197.055 168.51 197.727 168.51ZM206.799 176.084C206.005 176.084 205.305 175.921 204.699 175.594C204.101 175.267 203.635 174.819 203.299 174.25C202.972 173.681 202.809 173.027 202.809 172.29C202.809 171.553 202.967 170.899 203.285 170.33C203.611 169.761 204.055 169.317 204.615 169C205.184 168.673 205.823 168.51 206.533 168.51C207.251 168.51 207.886 168.669 208.437 168.986C208.987 169.303 209.417 169.751 209.725 170.33C210.042 170.899 210.201 171.567 210.201 172.332C210.201 172.388 210.196 172.453 210.187 172.528C210.187 172.603 210.182 172.673 210.173 172.738H203.859V171.772H209.473L208.927 172.108C208.936 171.632 208.838 171.207 208.633 170.834C208.427 170.461 208.143 170.171 207.779 169.966C207.424 169.751 207.009 169.644 206.533 169.644C206.066 169.644 205.651 169.751 205.287 169.966C204.923 170.171 204.638 170.465 204.433 170.848C204.227 171.221 204.125 171.651 204.125 172.136V172.36C204.125 172.855 204.237 173.298 204.461 173.69C204.694 174.073 205.016 174.371 205.427 174.586C205.837 174.801 206.309 174.908 206.841 174.908C207.279 174.908 207.676 174.833 208.031 174.684C208.395 174.535 208.712 174.311 208.983 174.012L209.725 174.88C209.389 175.272 208.969 175.571 208.465 175.776C207.97 175.981 207.415 176.084 206.799 176.084ZM212.267 176V168.58H213.555V170.596L213.429 170.092C213.634 169.579 213.98 169.187 214.465 168.916C214.95 168.645 215.548 168.51 216.257 168.51V169.812C216.201 169.803 216.145 169.798 216.089 169.798C216.042 169.798 215.996 169.798 215.949 169.798C215.23 169.798 214.661 170.013 214.241 170.442C213.821 170.871 213.611 171.492 213.611 172.304V176H212.267ZM221.349 176.084C220.556 176.084 219.856 175.921 219.249 175.594C218.652 175.267 218.185 174.819 217.849 174.25C217.522 173.681 217.359 173.027 217.359 172.29C217.359 171.553 217.518 170.899 217.835 170.33C218.162 169.761 218.605 169.317 219.165 169C219.734 168.673 220.374 168.51 221.083 168.51C221.802 168.51 222.436 168.669 222.987 168.986C223.538 169.303 223.967 169.751 224.275 170.33C224.592 170.899 224.751 171.567 224.751 172.332C224.751 172.388 224.746 172.453 224.737 172.528C224.737 172.603 224.732 172.673 224.723 172.738H218.409V171.772H224.023L223.477 172.108C223.486 171.632 223.388 171.207 223.183 170.834C222.978 170.461 222.693 170.171 222.329 169.966C221.974 169.751 221.559 169.644 221.083 169.644C220.616 169.644 220.201 169.751 219.837 169.966C219.473 170.171 219.188 170.465 218.983 170.848C218.778 171.221 218.675 171.651 218.675 172.136V172.36C218.675 172.855 218.787 173.298 219.011 173.69C219.244 174.073 219.566 174.371 219.977 174.586C220.388 174.801 220.859 174.908 221.391 174.908C221.83 174.908 222.226 174.833 222.581 174.684C222.945 174.535 223.262 174.311 223.533 174.012L224.275 174.88C223.939 175.272 223.519 175.571 223.015 175.776C222.52 175.981 221.965 176.084 221.349 176.084ZM227.139 176.084C226.878 176.084 226.654 175.995 226.467 175.818C226.281 175.631 226.187 175.398 226.187 175.118C226.187 174.838 226.281 174.609 226.467 174.432C226.654 174.255 226.878 174.166 227.139 174.166C227.391 174.166 227.606 174.255 227.783 174.432C227.97 174.609 228.063 174.838 228.063 175.118C228.063 175.398 227.97 175.631 227.783 175.818C227.606 175.995 227.391 176.084 227.139 176.084Z" fill="#737373"/>
</g>
<defs>
<filter id="filter0_d_1_48" x="0" y="0" width="366" height="248" filterUnits="userSpaceOnUse" color-interpolation-filters="sRGB">
<feFlood flood-opacity="0" result="BackgroundImageFix"/>
<feColorMatrix in="SourceAlpha" type="matrix" values="0 0 0 0 0 0 0 0 0 0 0 0 0 0 0 0 0 0 127 0" result="hardAlpha"/>
<feOffset dy="13"/>
<feGaussianBlur stdDeviation="9.5"/>
<feColorMatrix type="matrix" values="0 0 0 0 0 0 0 0 0 0 0 0 0 0 0 0 0 0 0.07 0"/>
<feBlend mode="normal" in2="BackgroundImageFix" result="effect1_dropShadow_1_48"/>
<feBlend mode="normal" in="SourceGraphic" in2="effect1_dropShadow_1_48" result="shape"/>
</filter>
<clipPath id="clip0_1_48">
<rect width="48" height="48" fill="white" transform="translate(59 41)"/>
</clipPath>
<clipPath id="clip1_1_48">
<rect width="48" height="47.4146" fill="white" transform="translate(59 41)"/>
</clipPath>
</defs>
</svg>
